<mxfile host="app.diagrams.net" modified="2024-02-11T11:26:18.719Z" agent="Mozilla/5.0 (Windows NT 10.0; Win64; x64) AppleWebKit/537.36 (KHTML, like Gecko) Chrome/121.0.0.0 Safari/537.36" etag="ldJTuJG3BEgjRiZct-bY" version="23.1.2" type="device">
  <diagram id="R2lEEEUBdFMjLlhIrx00" name="Page-1">
    <mxGraphModel dx="4097" dy="2234" grid="1" gridSize="10" guides="1" tooltips="1" connect="1" arrows="1" fold="1" page="1" pageScale="1" pageWidth="800" pageHeight="1100" math="0" shadow="0" extFonts="Permanent Marker^https://fonts.googleapis.com/css?family=Permanent+Marker">
      <root>
        <mxCell id="0" />
        <mxCell id="1" parent="0" />
        <mxCell id="8P9hOjr9j9nQe-zJG-vc-11" value="" style="edgeStyle=orthogonalEdgeStyle;rounded=0;orthogonalLoop=1;jettySize=auto;html=1;endArrow=ERoneToMany;endFill=0;strokeWidth=2;sourcePerimeterSpacing=0;startSize=10;endSize=10;targetPerimeterSpacing=0;jumpStyle=none;startArrow=ERone;startFill=0;" parent="1" source="8P9hOjr9j9nQe-zJG-vc-1" target="8P9hOjr9j9nQe-zJG-vc-6" edge="1">
          <mxGeometry relative="1" as="geometry" />
        </mxCell>
        <mxCell id="8P9hOjr9j9nQe-zJG-vc-1" value="&lt;h2&gt;รายชื่อแพทย์&lt;/h2&gt;" style="rounded=1;whiteSpace=wrap;html=1;labelBackgroundColor=none;fillStyle=auto;strokeWidth=2;gradientColor=none;labelBorderColor=none;" parent="1" vertex="1">
          <mxGeometry x="298" y="80" width="205" height="130" as="geometry" />
        </mxCell>
        <mxCell id="b5Ka-KV7uOQpAvj1tWQu-1" style="edgeStyle=orthogonalEdgeStyle;rounded=0;orthogonalLoop=1;jettySize=auto;html=1;entryX=0.5;entryY=0;entryDx=0;entryDy=0;startArrow=ERone;startFill=0;endSize=10;strokeWidth=2;startSize=10;endArrow=ERoneToMany;endFill=0;" edge="1" parent="1" source="8P9hOjr9j9nQe-zJG-vc-6" target="8P9hOjr9j9nQe-zJG-vc-7">
          <mxGeometry relative="1" as="geometry" />
        </mxCell>
        <mxCell id="8P9hOjr9j9nQe-zJG-vc-6" value="&lt;h2&gt;ห้องในโรงพยาบาล&lt;br&gt;&lt;/h2&gt;" style="rounded=1;whiteSpace=wrap;html=1;labelBackgroundColor=none;fillStyle=auto;strokeWidth=2;gradientColor=none;labelBorderColor=none;" parent="1" vertex="1">
          <mxGeometry x="298" y="330" width="205" height="130" as="geometry" />
        </mxCell>
        <mxCell id="b5Ka-KV7uOQpAvj1tWQu-2" style="edgeStyle=orthogonalEdgeStyle;rounded=0;orthogonalLoop=1;jettySize=auto;html=1;exitX=0.5;exitY=1;exitDx=0;exitDy=0;endSize=10;strokeWidth=2;startSize=10;endArrow=ERone;endFill=0;startArrow=ERmany;startFill=0;" edge="1" parent="1" source="8P9hOjr9j9nQe-zJG-vc-7" target="8P9hOjr9j9nQe-zJG-vc-17">
          <mxGeometry relative="1" as="geometry" />
        </mxCell>
        <mxCell id="8P9hOjr9j9nQe-zJG-vc-7" value="&lt;h2&gt;ข้อมูลการจองคิวของผู้ที่เข้ามาใช้งาน&lt;br&gt;&lt;/h2&gt;" style="rounded=1;whiteSpace=wrap;html=1;labelBackgroundColor=none;fillStyle=auto;strokeWidth=2;gradientColor=none;labelBorderColor=none;" parent="1" vertex="1">
          <mxGeometry x="298" y="610" width="205" height="130" as="geometry" />
        </mxCell>
        <mxCell id="8P9hOjr9j9nQe-zJG-vc-17" value="&lt;h2&gt;ผลตรวจ&lt;br&gt;&lt;/h2&gt;" style="rounded=1;whiteSpace=wrap;html=1;labelBackgroundColor=none;fillStyle=auto;strokeWidth=2;gradientColor=none;labelBorderColor=none;" parent="1" vertex="1">
          <mxGeometry x="298" y="890" width="205" height="130" as="geometry" />
        </mxCell>
      </root>
    </mxGraphModel>
  </diagram>
</mxfile>
